<?xml version="1.0" encoding="utf-8"?>
<!-- Generator: Adobe Illustrator 27.3.1, SVG Export Plug-In . SVG Version: 6.00 Build 0)  -->
<svg version="1.1" id="Vrstva_1" xmlns="http://www.w3.org/2000/svg" xmlns:xlink="http://www.w3.org/1999/xlink" x="0px" y="0px"
	 viewBox="0 0 15.27 20.57" style="enable-background:new 0 0 15.27 20.57;" xml:space="preserve">
<style type="text/css">
	.st0{fill:#FFFFFF;}
</style>
<g>
	<path class="st0" d="M5.57,2.98v-0.5C5.57,0.98,6.43,0,7.73,0C9,0,9.87,0.98,9.87,2.47v0.5v10.15l1.2-1.2
		c0.74-0.77,1.39-1.13,2.02-1.13c1.18,0,2.18,1.01,2.18,2.21c0,0.74-0.26,1.2-1.3,2.09l-6.24,5.47L1.34,15.1
		C0.29,14.21,0,13.73,0,12.94c0-1.22,1.01-2.23,2.23-2.23c0.67,0,1.22,0.31,2.06,1.15l1.27,1.27V2.98z"/>
</g>
</svg>
