<?xml version="1.0" encoding="utf-8"?>
<!-- Generator: Adobe Illustrator 27.3.1, SVG Export Plug-In . SVG Version: 6.00 Build 0)  -->
<svg version="1.1" id="Vrstva_1" xmlns="http://www.w3.org/2000/svg" xmlns:xlink="http://www.w3.org/1999/xlink" x="0px" y="0px"
	 viewBox="0 0 25 25" style="enable-background:new 0 0 25 25;" xml:space="preserve">
<style type="text/css">
	.st0{fill:#F39300;}
</style>
<path class="st0" d="M15.62,13.54h4.17v8.33h-4.17V13.54z M12.5,0c-0.27,0-0.53,0.11-0.73,0.3L0.41,9.59
	C0.4,9.6,0.38,9.61,0.37,9.62L0.33,9.65v0C0.12,9.85,0,10.13,0,10.42c0,0.57,0.47,1.04,1.04,1.04h1.04v11.46
	c0,1.15,0.93,2.08,2.08,2.08h16.67c1.15,0,2.08-0.93,2.08-2.08V11.46h1.04c0.57,0,1.04-0.47,1.04-1.04c0-0.29-0.12-0.57-0.33-0.76
	l-0.02-0.01c-0.02-0.02-0.05-0.04-0.07-0.06l-1.66-1.36V4.17c0-0.57-0.47-1.04-1.04-1.04h-1.04c-0.58,0-1.04,0.47-1.04,1.04v1.5
	l-6.59-5.39C13.01,0.1,12.76,0,12.5,0z"/>
</svg>
