<?xml version="1.0" encoding="utf-8"?>
<!-- Generator: Adobe Illustrator 27.3.1, SVG Export Plug-In . SVG Version: 6.00 Build 0)  -->
<svg version="1.1" id="Vrstva_1" xmlns="http://www.w3.org/2000/svg" xmlns:xlink="http://www.w3.org/1999/xlink" x="0px" y="0px"
	 viewBox="0 0 28 45.7" style="enable-background:new 0 0 28 45.7;" xml:space="preserve">
<style type="text/css">
	.st0{fill:#F39300;}
	.st1{fill:#FFFFFF;}
</style>
<g>
	<path class="st0" d="M12.99,28.79c0,2.45-1.55,3.73-3.24,3.73c-1.78,0-3.19-1.33-3.19-3.53c0-2.09,1.28-3.67,3.28-3.67
		C11.86,25.31,12.99,26.79,12.99,28.79z M8.6,28.91c0,1.22,0.41,2.11,1.21,2.11c0.77,0,1.15-0.79,1.15-2.11
		c0-1.19-0.32-2.11-1.17-2.11C8.98,26.81,8.6,27.74,8.6,28.91z M9.9,37.41l6.72-12.1h1.48l-6.73,12.1H9.9z M21.42,33.65
		c0,2.45-1.55,3.73-3.24,3.73c-1.76,0-3.17-1.33-3.19-3.53c0-2.09,1.28-3.67,3.28-3.67C20.29,30.17,21.42,31.65,21.42,33.65z
		 M17.05,33.78c-0.02,1.22,0.4,2.11,1.19,2.11c0.77,0,1.15-0.79,1.15-2.11c0-1.19-0.31-2.11-1.15-2.11
		C17.4,31.67,17.05,32.61,17.05,33.78z"/>
</g>
<path class="st1" d="M27.53,28.41c-1.23-4.56-3.34-8.92-5.44-13.19C19.48,9.89,16.46,4.76,13.87,0c-1.19,2.38-2.61,5.3-4.08,8.19
	C7.07,13.57,4.2,18.87,1.64,24.31c-1.49,3.17-2.05,6.65-1.31,10.15c1.66,7.83,8.9,12.52,16.73,10.93
	C24.51,43.89,29.61,36.09,27.53,28.41z M19.36,42.29c-4.06,2.37-8.14,1.95-11.93-0.78C3.8,38.9,1.86,34.1,3.56,29.56
	c2.24-5.99,5.24-11.7,7.96-17.5c0.63-1.33,1.48-2.56,2.54-4.35c4.18,7.92,9.34,14.7,10.7,23.24C25.55,35.91,23.64,39.79,19.36,42.29
	z"/>
</svg>
