<?xml version="1.0" encoding="utf-8"?>
<!-- Generator: Adobe Illustrator 27.3.1, SVG Export Plug-In . SVG Version: 6.00 Build 0)  -->
<svg version="1.1" id="Vrstva_1" xmlns="http://www.w3.org/2000/svg" xmlns:xlink="http://www.w3.org/1999/xlink" x="0px" y="0px"
	 viewBox="0 0 20.57 15.27" style="enable-background:new 0 0 20.57 15.27;" xml:space="preserve">
<style type="text/css">
	.st0{fill:#FFFFFF;}
</style>
<g>
	<path class="st0" d="M2.98,9.7h-0.5C0.98,9.7,0,8.83,0,7.54C0,6.26,0.98,5.4,2.47,5.4h0.5h10.15l-1.2-1.2
		c-0.77-0.74-1.13-1.39-1.13-2.02C10.8,1.01,11.81,0,13.01,0c0.74,0,1.2,0.26,2.09,1.3l5.47,6.24l-5.47,6.38
		c-0.89,1.06-1.37,1.34-2.16,1.34c-1.22,0-2.23-1.01-2.23-2.23c0-0.67,0.31-1.22,1.15-2.06l1.27-1.27H2.98z"/>
</g>
</svg>
