<?xml version="1.0" encoding="utf-8"?>
<!-- Generator: Adobe Illustrator 27.3.1, SVG Export Plug-In . SVG Version: 6.00 Build 0)  -->
<svg version="1.1" id="Vrstva_1" xmlns="http://www.w3.org/2000/svg" xmlns:xlink="http://www.w3.org/1999/xlink" x="0px" y="0px"
	 viewBox="0 0 46 46" style="enable-background:new 0 0 46 46;" xml:space="preserve">
<style type="text/css">
	.st0{fill:#FFFFFF;}
	.st1{fill:#F39300;}
</style>
<g>
	<path class="st0" d="M46,22.99C46.01,35.72,35.68,46.03,22.92,46C10.27,45.97,0.01,35.68,0,23.01C-0.01,10.28,10.32-0.03,23.08,0
		C35.73,0.03,45.99,10.32,46,22.99z M23,3.68c-10.71,0-19.35,8.66-19.32,19.36c0.03,10.66,8.56,19.21,19.23,19.28
		c10.69,0.07,19.37-8.55,19.41-19.28C42.36,12.35,33.71,3.68,23,3.68z"/>
	<path class="st1" d="M21.69,17.54c0.94,0,1.66,0,2.62,0c0,2.93,0.03,5.81-0.02,8.69c-0.02,1.02,0.17,1.72,1.1,2.41
		c1.84,1.35,1.91,3.95,0.36,5.56c-1.51,1.57-3.97,1.58-5.49,0.02c-1.57-1.61-1.51-4.2,0.32-5.56c0.9-0.68,1.14-1.36,1.12-2.39
		C21.65,23.43,21.69,20.59,21.69,17.54z M22.93,30.46c-0.71,0-1.15,0.69-1.12,1.18c0.02,0.41,0.11,1.1,1.14,1.1
		c1.03,0,1.18-0.73,1.24-1.2C24.23,31.1,23.65,30.46,22.93,30.46z"/>
	<path class="st1" d="M21.79,8.03c0.8,0,1.52,0,2.38,0c0,1.6,0,3.21,0,4.93c-0.75,0-1.51,0-2.38,0
		C21.79,11.34,21.79,9.72,21.79,8.03z"/>
	<path class="st0" d="M8.07,21.78c1.7,0,3.27,0,4.92,0c0,0.85,0,1.61,0,2.45c-1.66,0-3.23,0-4.92,0
		C8.07,23.43,8.07,22.67,8.07,21.78z"/>
	<path class="st0" d="M32.99,24.17c0-0.82,0-1.55,0-2.38c1.68,0,3.29,0,4.99,0c0,0.8,0,1.52,0,2.38
		C36.37,24.17,34.76,24.17,32.99,24.17z"/>
	<path class="st0" d="M30.98,16.94c1.46-0.85,2.81-1.65,4.37-2.57c0.41,0.68,0.81,1.33,1.32,2.17c-1.47,0.86-2.85,1.68-4.41,2.6
		C31.82,18.38,31.44,17.72,30.98,16.94z"/>
	<path class="st0" d="M15.04,16.93c-0.49,0.83-0.85,1.46-1.28,2.19c-1.51-0.86-2.87-1.64-4.41-2.53c0.41-0.73,0.79-1.4,1.25-2.22
		C12.08,15.23,13.48,16.03,15.04,16.93z"/>
	<path class="st0" d="M29.08,15.02c-0.75-0.42-1.38-0.77-2.2-1.23c0.84-1.48,1.63-2.88,2.51-4.44c0.76,0.43,1.43,0.81,2.23,1.26
		C30.76,12.11,29.95,13.51,29.08,15.02z"/>
	<path class="st0" d="M14.36,10.62c0.77-0.44,1.4-0.8,2.2-1.27c0.85,1.45,1.67,2.84,2.57,4.37c-0.72,0.44-1.33,0.81-2.17,1.31
		C16.11,13.6,15.3,12.22,14.36,10.62z"/>
</g>
</svg>
