<?xml version="1.0" encoding="utf-8"?>
<!-- Generator: Adobe Illustrator 27.3.1, SVG Export Plug-In . SVG Version: 6.00 Build 0)  -->
<svg version="1.1" id="Vrstva_1" xmlns="http://www.w3.org/2000/svg" xmlns:xlink="http://www.w3.org/1999/xlink" x="0px" y="0px"
	 viewBox="0 0 24.27 45" style="enable-background:new 0 0 24.27 45;" xml:space="preserve">
<style type="text/css">
	.st0{fill:#FFFFFF;}
	.st1{fill:#F39300;}
</style>
<g>
	<path class="st0" d="M9.39,44.61c-4.78-1.22-7.95-4.21-9.03-8.99c-1.06-4.72,0.25-8.84,3.92-12.19c0.64-0.58,1.05-1.73,1.07-2.62
		c0.11-4.63,0.03-9.26,0.05-13.89C5.42,2.77,8.04,0.05,12.03,0c4-0.05,6.78,2.6,6.86,6.73c0.09,4.7-0.04,9.4,0.08,14.09
		c0.02,0.95,0.5,2.15,1.18,2.78c3.58,3.34,4.8,7.46,3.73,12.06c-1.08,4.66-4.19,7.66-8.88,8.92C13.5,45.09,11.29,45.17,9.39,44.61z
		 M16.03,15.33c-0.01,0-0.02,0-0.03,0c0-2.79,0.11-5.59-0.03-8.38c-0.12-2.37-1.88-4.05-3.86-4.02c-2.03,0.03-3.59,1.71-3.79,4.08
		C8.27,7.62,8.29,8.24,8.29,8.85c0,4.29-0.07,8.59,0.03,12.88c0.04,1.77-0.37,2.97-1.91,4.11c-3.46,2.58-4.3,7.45-2.26,11.22
		c2.05,3.8,6.52,5.7,10.61,4.38c3.29-1.06,5.47-3.32,6.19-6.73c0.77-3.65-0.32-6.8-3.31-9.05c-1.25-0.94-1.71-1.89-1.64-3.39
		C16.11,19.97,16.03,17.65,16.03,15.33z"/>
	<path class="st1" d="M13.41,7.47c0,5.85,0.03,11.71-0.02,17.56c-0.01,1.38-0.29,2.58,0.62,2.64c2.79,0.84,4.09,3.51,3.5,6.52
		c-0.48,2.45-2.88,4.3-5.51,4.24c-2.67-0.06-4.96-1.99-5.32-4.48c-0.45-3.06,0.91-5.5,3.79-6.35c0.57-0.07,0.39-0.98,0.38-2.17
		c-0.05-5.99-0.02-11.98-0.02-17.97C10.92,7.47,13.32,7.47,13.41,7.47z"/>
</g>
</svg>
