<?xml version="1.0" encoding="utf-8"?>
<!-- Generator: Adobe Illustrator 27.3.1, SVG Export Plug-In . SVG Version: 6.00 Build 0)  -->
<svg version="1.1" id="Vrstva_1" xmlns="http://www.w3.org/2000/svg" xmlns:xlink="http://www.w3.org/1999/xlink" x="0px" y="0px"
	 viewBox="0 0 15.27 20.57" style="enable-background:new 0 0 15.27 20.57;" xml:space="preserve">
<style type="text/css">
	.st0{fill:#FFFFFF;}
</style>
<g>
	<path class="st0" d="M9.7,17.59v0.5c0,1.49-0.86,2.47-2.16,2.47c-1.27,0-2.14-0.98-2.14-2.47v-0.5V7.44l-1.2,1.2
		C3.46,9.41,2.81,9.77,2.18,9.77C1.01,9.77,0,8.76,0,7.56c0-0.74,0.26-1.2,1.3-2.09L7.54,0l6.38,5.47c1.06,0.89,1.34,1.37,1.34,2.16
		c0,1.22-1.01,2.23-2.23,2.23c-0.67,0-1.22-0.31-2.06-1.15L9.7,7.44V17.59z"/>
</g>
</svg>
